<svg width="60" height="60" viewBox="0 0 60 60" fill="none" xmlns="http://www.w3.org/2000/svg">
<g clip-path="url(#clip0_85_54)">
<path d="M7.5 48.7502L19.7578 21.176C21.5508 17.1448 24.4805 13.7346 28.1953 11.3674L45.4102 0.351789C45.7617 0.129133 46.1719 0.0119456 46.582 0.0119456C47.7773 0.000226861 48.75 0.972883 48.75 2.17991V2.36741C48.75 2.6721 48.6914 2.96507 48.5859 3.24632L41.5781 20.7307C41.3555 21.2815 41.25 21.8674 41.25 22.4534C41.25 23.0979 41.3906 23.7424 41.6484 24.3401L52.5 48.7502H28.2305L29.6133 44.6018L34.3477 43.0198C35.1094 42.7619 35.625 42.0471 35.625 41.2385C35.625 40.4299 35.1094 39.7151 34.3477 39.4573L29.6133 37.8752L28.0312 33.1409C27.7734 32.3909 27.0586 31.8752 26.25 31.8752C25.4414 31.8752 24.7266 32.3909 24.4688 33.1526L22.8867 37.8869L18.1523 39.469C17.3906 39.7268 16.875 40.4416 16.875 41.2502C16.875 42.0588 17.3906 42.7737 18.1523 43.0315L22.8867 44.6135L24.2695 48.7502H7.5ZM32.7656 16.5823C32.6367 16.1955 32.2852 15.9377 31.875 15.9377C31.4648 15.9377 31.1133 16.1955 30.9844 16.5823L30.1992 18.9494L27.832 19.7346C27.4453 19.8635 27.1875 20.2151 27.1875 20.6252C27.1875 21.0354 27.4453 21.3869 27.832 21.5159L30.1992 22.301L30.9844 24.6682C31.1133 25.0549 31.4648 25.3127 31.875 25.3127C32.2852 25.3127 32.6367 25.0549 32.7656 24.6682L33.5508 22.301L35.918 21.5159C36.3047 21.3869 36.5625 21.0354 36.5625 20.6252C36.5625 20.2151 36.3047 19.8635 35.918 19.7346L33.5508 18.9494L32.7656 16.5823ZM3.75 52.5002H56.25C58.3242 52.5002 60 54.176 60 56.2502C60 58.3244 58.3242 60.0002 56.25 60.0002H3.75C1.67578 60.0002 0 58.3244 0 56.2502C0 54.176 1.67578 52.5002 3.75 52.5002Z" fill="#00A2FD"/>
</g>
<defs>
<clipPath id="clip0_85_54">
<rect width="60" height="60" fill="white"/>
</clipPath>
</defs>
</svg>
