<svg width="58" height="33" viewBox="0 0 58 33" fill="none" xmlns="http://www.w3.org/2000/svg">
<path d="M16.6014 4.125C16.6014 3.03098 17.0368 1.98177 17.8119 1.20818C18.587 0.434596 19.6382 0 20.7343 0C21.8304 0 22.8816 0.434596 23.6567 1.20818C24.4318 1.98177 24.8672 3.03098 24.8672 4.125C24.8672 5.21902 24.4318 6.26823 23.6567 7.04182C22.8816 7.8154 21.8304 8.25 20.7343 8.25C19.6382 8.25 18.587 7.8154 17.8119 7.04182C17.0368 6.26823 16.6014 5.21902 16.6014 4.125Z" fill="#577383"/>
<path d="M4.20272 16.5C5.29883 16.5 6.35005 16.9346 7.12512 17.7082C7.90019 18.4818 8.33562 19.531 8.33562 20.625C8.33562 21.719 7.90019 22.7682 7.12512 23.5418C6.35005 24.3154 5.29883 24.75 4.20272 24.75C3.10661 24.75 2.05539 24.3154 1.28032 23.5418C0.505255 22.7682 0.0698242 21.719 0.0698242 20.625C0.0698242 19.531 0.505255 18.4818 1.28032 17.7082C2.05539 16.9346 3.10661 16.5 4.20272 16.5Z" fill="#577383"/>
<path d="M16.6014 28.875C16.6014 27.781 17.0368 26.7318 17.8119 25.9582C18.587 25.1846 19.6382 24.75 20.7343 24.75C21.8304 24.75 22.8816 25.1846 23.6567 25.9582C24.4318 26.7318 24.8672 27.781 24.8672 28.875C24.8672 29.969 24.4318 31.0182 23.6567 31.7918C22.8816 32.5654 21.8304 33 20.7343 33C19.6382 33 18.587 32.5654 17.8119 31.7918C17.0368 31.0182 16.6014 29.969 16.6014 28.875Z" fill="#577383"/>
<path d="M37.2659 8.25C38.362 8.25 39.4132 8.6846 40.1883 9.45818C40.9634 10.2318 41.3988 11.281 41.3988 12.375C41.3988 13.469 40.9634 14.5182 40.1883 15.2918C39.4132 16.0654 38.362 16.5 37.2659 16.5C36.1698 16.5 35.1186 16.0654 34.3435 15.2918C33.5684 14.5182 33.133 13.469 33.133 12.375C33.133 11.281 33.5684 10.2318 34.3435 9.45818C35.1186 8.6846 36.1698 8.25 37.2659 8.25Z" fill="#577383"/>
<path d="M45.5317 24.75C46.6278 24.75 47.679 25.1846 48.4541 25.9582C49.2292 26.7318 49.6646 27.781 49.6646 28.875C49.6646 29.969 49.2292 31.0182 48.4541 31.7918C47.679 32.5654 46.6278 33 45.5317 33C44.4356 33 43.3843 32.5654 42.6093 31.7918C41.8342 31.0182 41.3988 29.969 41.3988 28.875C41.3988 27.781 41.8342 26.7318 42.6093 25.9582C43.3843 25.1846 44.4356 24.75 45.5317 24.75Z" fill="#577383"/>
<path d="M49.6646 4.125C49.6646 3.03098 50.1 1.98177 50.8751 1.20818C51.6501 0.434596 52.7014 0 53.7975 0C54.8936 0 55.9448 0.434596 56.7199 1.20818C57.4949 1.98177 57.9304 3.03098 57.9304 4.125C57.9304 5.21902 57.4949 6.26823 56.7199 7.04182C55.9448 7.8154 54.8936 8.25 53.7975 8.25C52.7014 8.25 51.6501 7.8154 50.8751 7.04182C50.1 6.26823 49.6646 5.21902 49.6646 4.125Z" fill="#577383"/>
</svg>
